<mxfile host="app.diagrams.net" agent="Mozilla/5.0 (Windows NT 10.0; Win64; x64) AppleWebKit/537.36 (KHTML, like Gecko) Chrome/133.0.0.0 Safari/537.36" version="26.0.16">
  <diagram name="Sida-1" id="ZUWA77JF9ziJsLhQz_3x">
    <mxGraphModel dx="1232" dy="1131" grid="0" gridSize="10" guides="1" tooltips="1" connect="1" arrows="1" fold="1" page="1" pageScale="1" pageWidth="827" pageHeight="1169" math="0" shadow="0">
      <root>
        <mxCell id="0" />
        <mxCell id="1" parent="0" />
        <mxCell id="qV6fUzUou-IBQAQ1DuN7-1" value="&lt;div&gt;&lt;span style=&quot;background-color: transparent; color: light-dark(rgb(0, 0, 0), rgb(255, 255, 255));&quot;&gt;esmini:&lt;/span&gt;&lt;/div&gt;&lt;div&gt;&lt;font&gt;&amp;nbsp; window: 60 60 800 400&lt;/font&gt;&lt;/div&gt;&lt;div&gt;&lt;font&gt;&amp;nbsp; osc: ./resources/xosc/cut-in.xosc&lt;/font&gt;&lt;/div&gt;&lt;div&gt;&lt;br&gt;&lt;/div&gt;" style="rounded=1;whiteSpace=wrap;html=1;align=left;verticalAlign=top;spacingLeft=8;fontFamily=Lucida Console;strokeColor=#808080;sketch=1;curveFitting=1;jiggle=2;spacingTop=5;fontSize=14;" parent="1" vertex="1">
          <mxGeometry x="80" y="242" width="323" height="84" as="geometry" />
        </mxCell>
        <mxCell id="qV6fUzUou-IBQAQ1DuN7-3" value="config.yml" style="text;html=1;align=left;verticalAlign=middle;whiteSpace=wrap;rounded=0;fontSize=16;fontFamily=Comic Sans MS;" parent="1" vertex="1">
          <mxGeometry x="80" y="202" width="151" height="30" as="geometry" />
        </mxCell>
        <mxCell id="qV6fUzUou-IBQAQ1DuN7-6" value="&lt;div&gt;esmini:&lt;/div&gt;&lt;div&gt;&amp;nbsp; window: 50 100 1400 500&lt;/div&gt;&lt;div&gt;&amp;nbsp;&lt;span style=&quot;background-color: transparent; color: light-dark(rgb(0, 0, 0), rgb(255, 255, 255));&quot;&gt;&amp;nbsp;config_file_path: my_config2.yml&lt;/span&gt;&lt;/div&gt;&lt;div&gt;&lt;div&gt;&amp;nbsp; logfile_path: my_log1.txt&lt;/div&gt;&lt;div&gt;&amp;nbsp;&lt;/div&gt;&lt;/div&gt;" style="rounded=1;whiteSpace=wrap;html=1;align=left;verticalAlign=top;spacingLeft=8;fontFamily=Lucida Console;movable=1;resizable=1;rotatable=1;deletable=1;editable=1;locked=0;connectable=1;strokeColor=#808080;sketch=1;curveFitting=1;jiggle=2;spacingTop=5;fontSize=14;" parent="1" vertex="1">
          <mxGeometry x="216" y="418" width="329" height="99" as="geometry" />
        </mxCell>
        <mxCell id="qV6fUzUou-IBQAQ1DuN7-7" value="my_config1.yml" style="text;html=1;align=left;verticalAlign=middle;whiteSpace=wrap;rounded=0;fontSize=16;fontFamily=Comic Sans MS;" parent="1" vertex="1">
          <mxGeometry x="216" y="378" width="150" height="30" as="geometry" />
        </mxCell>
        <mxCell id="qV6fUzUou-IBQAQ1DuN7-8" value="&lt;div&gt;esmini:&lt;/div&gt;&lt;div&gt;&amp;nbsp; window: 400 200 600 300&lt;/div&gt;&lt;div&gt;&amp;nbsp; logfile_path: my_log2.txt&lt;/div&gt;&lt;div&gt;&lt;br&gt;&lt;/div&gt;" style="rounded=1;whiteSpace=wrap;html=1;align=left;verticalAlign=top;spacingLeft=8;fontFamily=Lucida Console;strokeColor=#808080;sketch=1;curveFitting=1;jiggle=2;spacingTop=5;fontSize=14;" parent="1" vertex="1">
          <mxGeometry x="376" y="604" width="280" height="86" as="geometry" />
        </mxCell>
        <mxCell id="qV6fUzUou-IBQAQ1DuN7-9" value="my_config2.yml" style="text;html=1;align=left;verticalAlign=middle;whiteSpace=wrap;rounded=0;fontSize=16;fontFamily=Comic Sans MS;" parent="1" vertex="1">
          <mxGeometry x="376" y="564" width="150" height="30" as="geometry" />
        </mxCell>
        <mxCell id="qV6fUzUou-IBQAQ1DuN7-10" value="./bin/esmini --osc my_scenario.xosc --config_file_path my_config1.yml" style="text;html=1;align=left;verticalAlign=middle;whiteSpace=wrap;rounded=0;fontSize=14;fontFamily=Lucida Console;movable=1;resizable=1;rotatable=1;deletable=1;editable=1;locked=0;connectable=1;" parent="1" vertex="1">
          <mxGeometry x="26" y="82" width="667" height="30" as="geometry" />
        </mxCell>
        <mxCell id="qV6fUzUou-IBQAQ1DuN7-11" value="default config, will always be applied first, if exists" style="shape=callout;whiteSpace=wrap;html=1;perimeter=calloutPerimeter;position2=0.17;size=30;position=0.3;base=20;align=left;spacingLeft=8;labelBorderColor=none;rounded=0;fillColor=#fff2cc;strokeColor=#d6b656;sketch=1;curveFitting=1;jiggle=2;fontFamily=Comic Sans MS;fontSize=14;" parent="1" vertex="1">
          <mxGeometry x="200" y="142" width="186" height="90" as="geometry" />
        </mxCell>
        <mxCell id="qV6fUzUou-IBQAQ1DuN7-12" value="" style="curved=1;endArrow=classic;html=1;rounded=0;sketch=1;curveFitting=1;jiggle=2;fillColor=#fff2cc;strokeColor=#d6b656;endSize=10;startSize=10;" parent="1" edge="1">
          <mxGeometry width="50" height="50" relative="1" as="geometry">
            <mxPoint x="456" y="114" as="sourcePoint" />
            <mxPoint x="408" y="410" as="targetPoint" />
            <Array as="points">
              <mxPoint x="464" y="272" />
            </Array>
          </mxGeometry>
        </mxCell>
        <mxCell id="qV6fUzUou-IBQAQ1DuN7-13" value="" style="curved=1;endArrow=classic;html=1;rounded=0;sketch=1;curveFitting=1;jiggle=2;fillColor=#fff2cc;strokeColor=#d6b656;endSize=10;startSize=10;entryX=1;entryY=0.75;entryDx=0;entryDy=0;" parent="1" edge="1">
          <mxGeometry width="50" height="50" relative="1" as="geometry">
            <mxPoint x="518" y="469" as="sourcePoint" />
            <mxPoint x="567" y="591.5" as="targetPoint" />
            <Array as="points">
              <mxPoint x="623" y="507" />
            </Array>
          </mxGeometry>
        </mxCell>
        <mxCell id="qV6fUzUou-IBQAQ1DuN7-14" value="./bin/esmini&amp;nbsp;--osc my_scenario.xosc --logfile_path my_log1.txt --window 400 200 600 300" style="text;html=1;align=left;verticalAlign=middle;whiteSpace=wrap;rounded=0;fontSize=14;fontFamily=Lucida Console;movable=1;resizable=1;rotatable=1;deletable=1;editable=1;locked=0;connectable=1;" parent="1" vertex="1">
          <mxGeometry x="26" y="779" width="761" height="30" as="geometry" />
        </mxCell>
        <mxCell id="qV6fUzUou-IBQAQ1DuN7-16" value="Initial command:" style="text;html=1;align=left;verticalAlign=middle;whiteSpace=wrap;rounded=0;fontSize=16;fontFamily=Comic Sans MS;" parent="1" vertex="1">
          <mxGeometry x="26" y="46" width="151" height="30" as="geometry" />
        </mxCell>
        <mxCell id="qV6fUzUou-IBQAQ1DuN7-17" value="Resulting command:" style="text;html=1;align=left;verticalAlign=middle;whiteSpace=wrap;rounded=0;fontSize=16;fontFamily=Comic Sans MS;" parent="1" vertex="1">
          <mxGeometry x="26" y="739" width="151" height="30" as="geometry" />
        </mxCell>
      </root>
    </mxGraphModel>
  </diagram>
</mxfile>
